<?xml version="1.0" encoding="UTF-8" standalone="no"?>
<svg
   xmlns:dc="http://purl.org/dc/elements/1.1/"
   xmlns:cc="http://creativecommons.org/ns#"
   xmlns:rdf="http://www.w3.org/1999/02/22-rdf-syntax-ns#"
   xmlns:svg="http://www.w3.org/2000/svg"
   xmlns="http://www.w3.org/2000/svg"
   xmlns:sodipodi="http://sodipodi.sourceforge.net/DTD/sodipodi-0.dtd"
   xmlns:inkscape="http://www.inkscape.org/namespaces/inkscape"
   fill="#000000"
   height="800px"
   width="800px"
   version="1.1"
   id="Layer_1"
   viewBox="0 0 330 330"
   xml:space="preserve"
   sodipodi:docname="up-arrow.svg"
   inkscape:version="1.0.1 (3bc2e813f5, 2020-09-07)"><metadata
   id="metadata8"><rdf:RDF><cc:Work
       rdf:about=""><dc:format>image/svg+xml</dc:format><dc:type
         rdf:resource="http://purl.org/dc/dcmitype/StillImage" /></cc:Work></rdf:RDF></metadata><defs
   id="defs6" /><sodipodi:namedview
   pagecolor="#ffffff"
   bordercolor="#666666"
   borderopacity="1"
   objecttolerance="10"
   gridtolerance="10"
   guidetolerance="10"
   inkscape:pageopacity="0"
   inkscape:pageshadow="2"
   inkscape:window-width="1500"
   inkscape:window-height="938"
   id="namedview4"
   showgrid="false"
   inkscape:zoom="0.64"
   inkscape:cx="400"
   inkscape:cy="-527.7528"
   inkscape:window-x="-6"
   inkscape:window-y="-6"
   inkscape:window-maximized="1"
   inkscape:current-layer="Layer_1" />
<path
   id="XMLID_29_"
   d="m 155.27191,-100.6065 -49.394,49.393999 V -315.0005 c 0,-8.284 -6.716003,-15 -15.000003,-15 -8.284,0 -15,6.716 -15,15 v 263.787999 l -49.394,-49.393999 c -2.928,-2.929 -6.767,-4.394 -10.606,-4.394 -3.839,0 -7.6779996,1.465 -10.6059996,4.394 -5.85799995,5.856999 -5.85799995,15.354999 0,21.212999 L 80.271907,-4.3935012 c 5.857,5.858 15.355,5.858 21.213003,0 l 75,-74.9999998 c 5.858,-5.857 5.858,-15.355 0,-21.212999 -5.858,-5.857 -15.356,-5.857 -21.213,0 z" />
</svg>
