<?xml version="1.0" encoding="iso-8859-1"?>
<!-- Uploaded to: SVG Repo, www.svgrepo.com, Generator: SVG Repo Mixer Tools -->
<svg fill="#000000" height="800px" width="800px" version="1.1" id="Layer_1" xmlns="http://www.w3.org/2000/svg" xmlns:xlink="http://www.w3.org/1999/xlink" 
	 viewBox="0 0 512 512" xml:space="preserve">
<g>
	<g>
		<g  style="fill:#dd00dd;stroke:#dd00dd;stroke-width:2;stroke-linecap:round;stroke-linejoin:round">
			<path d="M202.453,364.757l2.133-10.667c0.619-3.136-0.192-6.379-2.219-8.853c-2.005-2.475-5.035-3.904-8.235-3.904h-55.467
				c-5.888,0-10.667,4.779-10.667,10.667v34.56c0,13.12,6.507,25.28,16.171,31.573l29.995,27.115
				c2.048,1.835,4.608,2.752,7.168,2.752c2.731,0,5.461-1.045,7.552-3.115l10.667-10.667c6.656-6.677,13.781-17.771,13.781-28.885
				v-4.885c0-10.432-4.075-20.267-10.88-26.901C201.963,372.459,201.707,368.491,202.453,364.757z"/>
			<path d="M256,0C114.837,0,0,114.837,0,256s114.837,256,256,256s256-114.837,256-256S397.163,0,256,0z M256,490.667
				c-129.387,0-234.667-105.28-234.667-234.667c0-60.864,23.488-116.203,61.632-157.952l72.619,72.619h-16.917
				C97.493,170.667,64,204.16,64,245.333S97.493,320,138.667,320h66.901l109.995,52.8c7.851,7.083,16.491,11.2,25.771,11.2
				c7.104,0,14.08-2.475,20.629-6.955l51.989,51.989C372.203,467.179,316.864,490.667,256,490.667z M311.808,326.891l34.667,34.667
				c-5.291,2.24-10.88,0.811-16.384-3.84c-0.363-0.512-0.64-1.088-1.109-1.536C322.496,349.931,316.629,339.669,311.808,326.891z
				 M429.035,413.952l-58.859-58.859l-70.997-70.997L188.864,173.781L98.027,82.944C139.797,44.821,195.136,21.333,256,21.333
				c129.387,0,234.667,105.28,234.667,234.667C490.667,316.864,467.179,372.203,429.035,413.952z"/>
			<path d="M341.333,106.624c-10.368,0-19.883,5.269-28.395,14.016l-82.624,45.056c-2.965,1.621-4.971,4.523-5.461,7.851
				s0.64,6.677,3.029,9.067l53.099,53.12c0.384,0.384,0.896,0.576,1.323,0.896c0.597,0.448,1.173,0.939,1.856,1.237
				c0.704,0.32,1.472,0.427,2.24,0.576c0.512,0.107,0.981,0.363,1.515,0.384c0.107,0,0.192-0.043,0.277-0.043
				c0.107,0,0.213,0.064,0.32,0.064c0.832,0,1.621-0.256,2.453-0.448c0.384-0.107,0.811-0.085,1.173-0.213
				c0.064-0.021,0.128,0,0.171-0.043c0.171-0.064,0.256-0.256,0.448-0.341c1.429-0.64,2.645-1.621,3.669-2.795
				c0.363-0.405,0.661-0.768,0.96-1.237c0.96-1.493,1.685-3.136,1.771-4.992c0.384-6.677,1.045-13.013,1.835-19.179
				c0.213-1.685,0.448-3.349,0.683-5.013c0.789-5.333,1.685-10.475,2.731-15.339c0.149-0.661,0.256-1.387,0.405-2.048
				c1.237-5.547,2.667-10.709,4.203-15.595c0.341-1.067,0.704-2.069,1.045-3.115c1.28-3.776,2.624-7.339,4.053-10.645
				c0.448-1.067,0.896-2.176,1.387-3.2c1.472-3.157,2.987-5.995,4.565-8.619c1.024-1.728,2.112-3.307,3.2-4.821
				c5.909-8.32,12.181-13.227,18.091-13.227c20.139,0,42.667,50.176,42.667,117.333c0,27.243-3.648,53.056-10.581,74.667
				c-1.792,5.611,1.301,11.605,6.912,13.397c1.088,0.341,2.176,0.512,3.243,0.512c4.501,0,8.704-2.88,10.155-7.424
				c7.573-23.659,11.584-51.733,11.584-81.173C405.333,166.229,377.813,106.624,341.333,106.624z"/>
			<path d="M330.667,213.333c-5.888,0-10.667,4.779-10.667,10.667s4.779,10.667,10.667,10.667s10.667,4.779,10.667,10.667
				S336.555,256,330.667,256S320,260.779,320,266.667s4.779,10.667,10.667,10.667c17.643,0,32-14.357,32-32
				C362.667,227.691,348.309,213.333,330.667,213.333z"/>
		</g>
	</g>
</g>
</svg>